<?xml version="1.0" encoding="UTF-8" standalone="no"?>
<!-- Created with Inkscape (http://www.inkscape.org/) -->

<svg
   width="26.987499mm"
   height="26.987499mm"
   viewBox="0 0 26.987499 26.987499"
   version="1.1"
   id="svg1"
   xml:space="preserve"
   inkscape:version="1.4.2 (ebf0e940, 2025-05-08)"
   sodipodi:docname="logo_uniurb_blu_border.svg"
   xmlns:inkscape="http://www.inkscape.org/namespaces/inkscape"
   xmlns:sodipodi="http://sodipodi.sourceforge.net/DTD/sodipodi-0.dtd"
   xmlns="http://www.w3.org/2000/svg"
   xmlns:svg="http://www.w3.org/2000/svg"><sodipodi:namedview
     id="namedview1"
     pagecolor="#505050"
     bordercolor="#ffffff"
     borderopacity="1"
     inkscape:showpageshadow="0"
     inkscape:pageopacity="0"
     inkscape:pagecheckerboard="1"
     inkscape:deskcolor="#d1d1d1"
     inkscape:document-units="mm"
     inkscape:zoom="3.560933"
     inkscape:cx="55.462992"
     inkscape:cy="57.147944"
     inkscape:window-width="1920"
     inkscape:window-height="966"
     inkscape:window-x="0"
     inkscape:window-y="25"
     inkscape:window-maximized="1"
     inkscape:current-layer="g1"
     showgrid="false"><inkscape:page
       x="0"
       y="0"
       width="26.987497"
       height="26.987497"
       id="page2"
       margin="0"
       bleed="0" /></sodipodi:namedview><defs
     id="defs1" /><g
     inkscape:label="Livello 1"
     inkscape:groupmode="layer"
     id="layer1"
     transform="translate(0.2645907,-2.6458314)" /><g
     id="g1"
     inkscape:groupmode="layer"
     inkscape:label="1"
     transform="matrix(0.26458333,0,0,0.26458334,220.2646,-2.6458314)"><ellipse
       style="fill:#ffffff;fill-opacity:1;stroke-width:3.86274;stroke-linecap:round;stroke-linejoin:round;stroke-miterlimit:12.41"
       id="path1"
       cx="-781.49615"
       cy="60.999989"
       rx="51"
       ry="50.999996" /><path
       id="path41"
       d="m -792.89739,66.499998 c 0.80267,0.197334 1.40134,0.401334 2.204,0.598667 -0.10533,-0.296 -0.204,-0.598667 -0.30266,-0.796 -0.0987,-0.204 -0.19734,-0.302667 -0.5,-0.204 -0.30267,0.09867 -0.59867,0.204 -1,0.302667 -0.0987,0 -0.19734,0.09867 -0.40134,0.09867"
       style="fill:#1d4580;fill-opacity:1;fill-rule:nonzero;stroke:none;stroke-width:1.33333" /><path
       id="path42"
       d="m -772.69339,68.802665 c -0.204,0.296 -0.30266,0.598667 -0.5,0.894667 0.796,-0.09867 1.5,-0.197334 2.296,-0.296 -0.5,-0.401334 -0.90133,-0.598667 -1.5,-0.704 -0.0987,0 -0.296,0 -0.296,0.105333"
       style="fill:#1d4580;fill-opacity:1;fill-rule:nonzero;stroke:none;stroke-width:1.33333" /><path
       id="path43"
       d="m -793.39739,63.697332 c 0.59867,0.204 1.204,0.5 1.90134,0.704 -0.0987,-0.302667 -0.0987,-0.598667 -0.19734,-0.901334 0,-0.09867 -0.10533,-0.197333 -0.204,-0.197333 -0.5,0 -1,0.09867 -1.5,0.394667"
       style="fill:#1d4580;fill-opacity:1;fill-rule:nonzero;stroke:none;stroke-width:1.33333" /><path
       id="path44"
       d="m -771.79872,66.098665 c -0.0987,0.302667 -0.19733,0.598667 -0.39467,0.901333 0.69734,-0.197333 1.39467,-0.401333 2.09867,-0.5 -0.5,-0.401333 -1,-0.5 -1.5,-0.5 -0.0987,0 -0.204,0.09867 -0.204,0.09867"
       style="fill:#1d4580;fill-opacity:1;fill-rule:nonzero;stroke:none;stroke-width:1.33333" /><path
       id="path45"
       d="m -793.79872,60.802665 c 0.60533,0.296 1.204,0.5 1.90133,0.796 0,-0.296 -0.0987,-0.598667 -0.0987,-0.901333 0,-0.197334 -0.0987,-0.197334 -0.30267,-0.296 -0.59867,0 -1.09867,0.197333 -1.5,0.401333"
       style="fill:#1d4580;fill-opacity:1;fill-rule:nonzero;stroke:none;stroke-width:1.33333" /><path
       id="path46"
       d="m -791.69339,51.098665 c 0,-0.09867 -0.10533,-0.197333 -0.204,-0.197333 -0.5,-0.204 -1,-0.204 -1.5,-0.09867 0.5,0.394667 1.09867,0.894667 1.59867,1.296 0.10533,-0.296 0.10533,-0.697333 0.10533,-1"
       style="fill:#1d4580;fill-opacity:1;fill-rule:nonzero;stroke:none;stroke-width:1.33333" /><path
       id="path47"
       d="m -792.59472,56.697332 c -0.90133,-0.197333 -1.704,-0.09867 -2.5,0.302667 1,0.5 1.90133,1 2.90133,1.5 0,-0.401334 0,-0.901334 0,-1.401334 -0.10533,-0.197333 -0.30266,-0.296 -0.40133,-0.401333"
       style="fill:#1d4580;fill-opacity:1;fill-rule:nonzero;stroke:none;stroke-width:1.33333" /><path
       id="path48"
       d="m -791.99605,53.697332 c -0.59867,-0.197333 -1.19734,-0.197333 -1.80267,-0.09867 0.60533,0.401334 1.204,0.802667 1.80267,1.098667 -0.0987,-0.394667 -0.0987,-0.697333 0,-1"
       style="fill:#1d4580;fill-opacity:1;fill-rule:nonzero;stroke:none;stroke-width:1.33333" /><path
       id="path49"
       d="m -770.19339,73.802665 h -6.30266 c 2.09866,2.197333 4.19733,4.296 6.19733,6.5 0.204,-0.204 0.204,-5.901334 0.10533,-6.5"
       style="fill:#1d4580;fill-opacity:1;fill-rule:nonzero;stroke:none;stroke-width:1.33333" /><path
       id="path50"
       d="m -777.09472,57.401332 c 0.19733,0.09867 0.40133,0.09867 0.5,-0.09867 0.0987,-0.105333 0,-0.302666 -0.0987,-0.5 0,0 -0.10533,-0.105333 -0.10533,-0.105333 -1.09867,-1.197333 -2.59867,-1.598667 -4,-2.197333 0,0 0,0.09867 -0.0987,0.09867 0.5,0.401334 1,0.901334 1.5,1.302667 0.80267,0.5 1.59867,1 2.30267,1.5"
       style="fill:#1d4580;fill-opacity:1;fill-rule:nonzero;stroke:none;stroke-width:1.33333" /><path
       id="path51"
       d="m -777.99605,45.401332 c -0.30267,-2 -2.30267,-3.302666 -4.30267,-2.901333 -2,0.5 -3.19733,2.5 -2.59867,4.5 0.30267,1 0.90134,1.802666 1.90134,2.197333 0.30266,0.105333 0.40133,0 0.40133,-0.197333 0,-0.197334 -0.0987,-0.302667 -0.0987,-0.5 -0.10533,-0.09867 -0.204,-0.197334 -0.30266,-0.302667 -0.69734,-0.796 -0.90134,-2 -0.30267,-3 0.5,-0.894666 1.60533,-1.197333 2.60533,-0.894666 1.09867,0.296 1.59867,1.098666 1.89467,2.098666 0.10533,0.401333 0.204,0.796 0.30267,1.296 0,-0.09867 0.0987,-0.09867 0.0987,-0.197333 0.5,-0.598667 0.5,-1.302667 0.40134,-2.098667"
       style="fill:#1d4580;fill-opacity:1;fill-rule:nonzero;stroke:none;stroke-width:1.33333" /><path
       id="path52"
       d="m -778.89739,50.598665 c -0.19733,-0.197333 -0.5,-0.296 -0.796,-0.5 -0.10533,1.204 -0.30266,2.302667 -0.40133,3.302667 -0.0987,0.401333 0,0.598667 0.5,0.697333 1.09867,0.401334 2.19733,0.802667 3.09867,1.704 0,-0.704 -0.0987,-1.204 -0.30267,-1.802666 -0.39467,-1.302667 -1.09867,-2.5 -2.09867,-3.401334"
       style="fill:#1d4580;fill-opacity:1;fill-rule:nonzero;stroke:none;stroke-width:1.33333" /><path
       id="path53"
       d="m -785.69339,57.197332 c 0.19734,0 0.39467,-0.09867 0.59867,-0.296 1.296,-0.704 2.40133,-1.704 3.40133,-2.802667 0.0987,-0.09867 0.19734,-0.296 0.296,-0.5 0.30267,-0.697333 0.204,-1.598666 -0.19733,-2.098666 0,0 -0.0987,0 -0.0987,0 0,0.302666 -0.204,0.598666 -0.10533,0.901333 0.10533,1 -0.296,1.598667 -1.09867,2.098667 -0.90133,0.5 -1.69733,1 -2.5,1.598666 -0.19733,0.09867 -0.40133,0.401334 -0.59866,0.598667 -0.0987,0.105333 -0.0987,0.302667 0,0.401333 0,0.204 0.19733,0.204 0.30266,0.09867"
       style="fill:#1d4580;fill-opacity:1;fill-rule:nonzero;stroke:none;stroke-width:1.33333" /><path
       id="path54"
       d="m -782.39739,53.197332 c 0.0987,-0.598667 0.0987,-1.098667 0.204,-1.697333 0,-0.401334 0.19734,-0.5 0.5,-0.598667 0.296,0 0.5,0.09867 0.69734,0.401333 0.0987,0.197334 0.0987,0.394667 0.19733,0.5 0.10533,-1 0.30267,-2 0.40133,-3 -0.40133,0 -0.796,0.09867 -1.19733,0.09867 -0.204,0 -0.204,0.09867 -0.30267,0.197333 -0.19733,0.704 -0.40133,1.401334 -0.59866,2.098667 -0.19734,0.802667 -0.40134,1.605333 -0.5,2.401333 0.40133,0.204 0.59866,0 0.59866,-0.401333"
       style="fill:#1d4580;fill-opacity:1;fill-rule:nonzero;stroke:none;stroke-width:1.33333" /><path
       id="path55"
       d="m -782.89739,46.499999 c 0,0.697333 0.59867,1.697333 1.30267,1.901333 0.5,0.197333 0.90133,-0.09867 0.90133,-0.704 0,-0.697333 -0.60533,-1.598666 -1.30266,-1.796 -0.59867,-0.204 -0.90134,0 -0.90134,0.598667"
       style="fill:#1d4580;fill-opacity:1;fill-rule:nonzero;stroke:none;stroke-width:1.33333" /><path
       id="path56"
       d="m -774.79872,67.401332 c -0.69733,0.901333 -1.59867,1.598666 -2.5,2.197333 -0.0987,0 -0.19733,0.302667 -0.19733,0.401333 0,0.401334 0.0987,0.802667 0.0987,1.302667 0,0 0.0987,0 0.0987,0 1.204,-1.105333 2.10533,-2.302667 2.60533,-3.901333 0,0 -0.10533,0 -0.10533,0"
       style="fill:#1d4580;fill-opacity:1;fill-rule:nonzero;stroke:none;stroke-width:1.33333" /><path
       id="path57"
       d="m -779.99605,47.302665 c 0.0987,0.5 0.19733,1.098667 0.30266,1.598667 0.0987,0.401333 0.296,0.598667 0.796,0.796 0,-0.09867 0,-0.09867 0,-0.09867 -0.19733,-1 -0.296,-1.901333 -0.5,-2.901333 -0.19733,-0.796 -0.59866,-1.296 -1.40133,-1.598666 -0.39467,-0.197334 -0.69733,-0.197334 -1.09867,0 0.0987,0 0.0987,0.09867 0.0987,0.09867 1,0.302667 1.5,1 1.80267,2.105333"
       style="fill:#1d4580;fill-opacity:1;fill-rule:nonzero;stroke:none;stroke-width:1.33333" /><path
       id="path58"
       d="m -804.79872,85.999998 c -0.19733,-0.197333 -0.39467,-0.302667 -0.69733,-0.302667 -0.30267,0 -0.59867,0.302667 -1,0.704 -0.40134,0.401333 -0.59867,0.697333 -0.59867,1 0,0.197333 0.0987,0.5 0.296,0.697333 l 0.5,0.5 2,-2.098666 z"
       style="fill:#1d4580;fill-opacity:1;fill-rule:nonzero;stroke:none;stroke-width:1.33333" /><path
       id="path59"
       d="m -815.89739,48.401332 c -0.40133,-0.09867 -0.69733,0.09867 -0.796,0.401333 l -0.30266,0.894667 1.19733,0.401333 0.30267,-0.901333 c 0.0987,-0.394667 0,-0.697333 -0.40134,-0.796"
       style="fill:#1d4580;fill-opacity:1;fill-rule:nonzero;stroke:none;stroke-width:1.33333" /><path
       id="path60"
       d="m -808.19339,35.401332 0.89467,1.598667 0.90133,-0.901333 z"
       style="fill:#1d4580;fill-opacity:1;fill-rule:nonzero;stroke:none;stroke-width:1.33333" /><path
       id="path61"
       d="m -814.39739,76.901331 c -0.296,0.197334 -0.40133,0.5 -0.19733,0.901334 l 0.40133,0.796 1.09867,-0.598667 -0.40133,-0.697333 c -0.19734,-0.401334 -0.5,-0.5 -0.90134,-0.401334"
       style="fill:#1d4580;fill-opacity:1;fill-rule:nonzero;stroke:none;stroke-width:1.33333" /><path
       id="path62"
       d="m -809.39739,81.197331 c 0,-0.197333 0,-0.394666 -0.0987,-0.598666 -0.0987,-0.197334 -0.30267,-0.296 -0.5,-0.296 -0.30267,0 -0.5,0.09867 -1.19734,0.5 -0.704,0.5 -0.80266,0.598666 -0.90133,0.894666 0,0.204 0,0.401334 0.0987,0.605334 0.0987,0.197333 0.30266,0.296 0.5,0.296 0.30266,0 0.5,-0.09867 1.19733,-0.5 0.704,-0.5 0.90133,-0.598667 0.90133,-0.901334"
       style="fill:#1d4580;fill-opacity:1;fill-rule:nonzero;stroke:none;stroke-width:1.33333" /><path
       id="path63"
       d="m -783.89739,53.901332 c 0.204,-0.704 0.30267,-1.401333 0.40134,-2.098667 0.0987,-0.5 0.19733,-1.105333 0.30266,-1.605333 -1.40133,0.302667 -3.40133,3.901333 -3,5.401333 0,0 0.0987,0 0.0987,0 0.59867,-0.401333 1.296,-0.697333 1.796,-1.098666 0.204,-0.197334 0.40133,-0.401334 0.40133,-0.598667"
       style="fill:#1d4580;fill-opacity:1;fill-rule:nonzero;stroke:none;stroke-width:1.33333" /><path
       id="path64"
       d="m -744.69339,57.697332 -1.90133,-0.5 0.19733,1.204 z"
       style="fill:#1d4580;fill-opacity:1;fill-rule:nonzero;stroke:none;stroke-width:1.33333" /><path
       id="path65"
       d="m -750.39739,41.401332 c 0.30267,-0.204 0.30267,-0.5 0.0987,-0.901333 l -0.5,-0.802667 -1,0.605334 0.5,0.796 c 0.30267,0.401333 0.60533,0.5 0.90133,0.302666"
       style="fill:#1d4580;fill-opacity:1;fill-rule:nonzero;stroke:none;stroke-width:1.33333" /><path
       id="path66"
       d="m -757.19339,33.499999 c 0.296,-0.302666 0.19734,-0.697333 -0.10533,-1 l -0.69733,-0.598666 -0.90134,1 0.704,0.598666 c 0.39467,0.302667 0.796,0.302667 1,0"
       style="fill:#1d4580;fill-opacity:1;fill-rule:nonzero;stroke:none;stroke-width:1.33333" /><path
       id="path67"
       d="m -752.69339,42.197332 c 0.19734,0.302667 0.59867,0.401334 0.89467,0.204 0.30267,-0.204 0.40133,-0.5 0.10533,-0.901333 l -0.5,-0.802667 -1,0.704 z"
       style="fill:#1d4580;fill-opacity:1;fill-rule:nonzero;stroke:none;stroke-width:1.33333" /><path
       id="path68"
       d="m -790.49605,68.697332 c -0.59867,0.105333 -1.09867,0.302666 -1.40134,0.704 0.704,0.09867 1.5,0.296 2.204,0.401333 -0.10533,-0.302667 -0.30266,-0.605333 -0.5,-0.901333 0,-0.09867 -0.204,-0.204 -0.30266,-0.204"
       style="fill:#1d4580;fill-opacity:1;fill-rule:nonzero;stroke:none;stroke-width:1.33333" /><path
       id="path69"
       d="m -776.09472,89.098664 c 0.296,0.302667 0.59867,0.401334 1,0.204 0.19733,-0.105333 0.296,-0.105333 0.5,-0.204 1.09867,-0.296 2.09867,-0.901333 3,-1.697333 -0.204,-0.204 -0.40133,-0.302667 -0.5,-0.5 -2.80267,-2.704 -5.5,-5.5 -8.30267,-8.204 -1.59866,-1.5 -3.09866,-3.098666 -4.69733,-4.598666 -0.204,-0.197334 -0.5,-0.401334 -0.90133,-0.401334 -1.80267,0 -3.5,0 -5.30267,0 -0.0987,0 -0.19733,0.105334 -0.296,0.105334 0.296,0.197333 0.5,0.394666 0.69733,0.5 4.30267,4.197333 8.5,8.394666 12.704,12.598666 0.69734,0.796 1.39467,1.5 2.09867,2.197333"
       style="fill:#1d4580;fill-opacity:1;fill-rule:nonzero;stroke:none;stroke-width:1.33333" /><path
       id="path70"
       d="m -780.39739,91.901331 c 0,0 0,-0.09867 0,-0.09867 1.09867,-0.704 2.204,-1.401333 3.30267,-2.204 -5.09867,-5.295999 -10.40133,-10.499999 -15.80267,-15.795999 0,0.197333 0,0.296 0,0.296 0,1.401333 0,2.802666 0,4.204 0,0.598666 0.204,1.098666 0.59867,1.5 3.90133,3.894666 7.90133,7.894666 11.80267,11.795999 0,0.09867 0.0987,0.204 0.0987,0.302667"
       style="fill:#1d4580;fill-opacity:1;fill-rule:nonzero;stroke:none;stroke-width:1.33333" /><path
       id="path71"
       d="m -789.49605,59.598665 0.59866,-0.09867 0.204,-0.5 0.39467,0.401333 0.60533,-0.09867 -0.204,0.598667 0.40134,0.5 -0.59867,0.09867 -0.204,0.5 -0.39467,-0.401333 -0.60533,0.09867 0.204,-0.598667 z m 0.69733,-5.598666 0.204,-0.5 0.40133,0.401333 0.59867,-0.09867 -0.204,0.598667 0.40133,0.5 -0.59866,0.09867 -0.19734,0.5 -0.40133,-0.5 -0.59867,0.09867 0.19734,-0.598666 -0.5,-0.401334 z m 1.204,-4.401334 0.19733,-0.5 0.40134,0.401334 0.59866,-0.09867 -0.19733,0.598667 0.40133,0.5 -0.60533,0.09867 -0.19733,0.5 -0.40134,-0.401333 -0.59866,0.105333 0.19733,-0.605333 -0.5,-0.5 z m 11.40133,0.302667 -0.10533,-0.302667 0.60533,0.09867 0.39467,-0.394667 0.204,0.5 0.40133,0.09867 0.296,0.09867 -0.40133,0.5 0.204,0.598666 -0.59867,-0.09867 -0.40133,0.401333 -0.204,-0.5 -0.69733,-0.204 0.40133,-0.5 z m 2.296,3.5 0.204,0.5 0.59867,0.09867 -0.40133,0.598666 0.19733,0.598667 -0.69733,-0.197333 -0.40134,0.401333 -0.0987,-0.5 -0.59867,-0.09867 0.40133,-0.5 -0.204,-0.605333 0.59867,0.105333 z m 0.59867,7.296 -0.59867,-0.09867 -0.40133,0.401333 -0.19733,-0.598666 -0.59867,-0.09867 0.40133,-0.5 -0.204,-0.605333 0.59867,0.105333 0.40133,-0.401333 0.204,0.5 0.59867,0.09867 -0.40133,0.5 z m -13.19733,12.105333 c 0.40133,-0.5 0.40133,-0.605333 0,-1 -0.19734,-0.204 -0.30267,-0.302667 -0.5,-0.5 -1.5,-1.605333 -2.30267,-3.5 -2.19734,-5.704 0,-0.401333 0.0987,-0.697333 0.0987,-1.098667 0.796,2 2,3.5 4,4.598667 0.0987,-0.5 0.0987,-1.098667 0.19733,-1.598667 0.0987,-1.197333 0.30267,-2.401333 0.40134,-3.598666 0,-0.302667 0,-0.5 -0.30267,-0.704 -0.69733,-0.5 -1.09867,-1.197334 -1.39467,-1.894667 -1,-2.302666 -1.204,-4.704 -0.704,-7.204 0.40134,-1.697333 1.204,-3.197333 2.704,-4.296 0,0 0.0987,-0.105333 0.19734,-0.105333 -0.19734,-0.197333 -0.40134,-0.296 -0.59867,-0.5 -1.09867,-1 -1.59867,-2.197333 -1.40133,-3.697333 0.30266,-2.401333 2.40133,-4 4.80266,-3.802667 2.19734,0.105334 4,2.105334 4,4.401334 0,0.999999 -0.30266,1.901333 -0.90133,2.598666 -0.30267,0.401333 -0.40133,0.704 -0.204,1.204 0.204,0.5 0.40133,0.901333 0.704,1.296 1,1.302667 1.5,2.802667 1.69733,4.401333 0.204,1.5 0.0987,2.901334 -0.0987,4.401334 -0.19734,1.302666 -0.5,2.499999 -1.30267,3.598666 -0.19733,0.302667 -0.296,0.598667 -0.296,1 0,1.302667 0,2.598667 -0.0987,3.901333 0,0.09867 0,0.302667 0,0.401334 1.796,-1 3,-2.5 3.69734,-4.5 0.59866,3.296 -0.59867,5.796 -3.19734,7.697333 0.19734,0.204 0.39467,0.401333 0.59867,0.704 0.19733,-0.204 0.296,-0.302667 0.40133,-0.5 1,-1.204 1.796,-2.605333 2.39467,-4 1.10533,-2.605333 1.704,-5.302667 1.90133,-8.105333 0.30267,-3.296 0.0987,-6.598667 -0.59866,-9.894667 -0.59867,-2.605333 -1.5,-4.999999 -3,-7.203999 -0.5,-0.796 -1.19734,-1.401334 -2.19734,-1.697334 -2.5,-0.802666 -5,-0.802666 -7.60533,-0.09867 -1,0.296 -1.89467,0.796 -2.5,1.796 -1,1.5 -1.796,3.098666 -2.39467,4.901333 -0.90133,2.5 -1.30266,5.098666 -1.40133,7.697333 -0.204,3.204 0.0987,6.401333 0.90133,9.605333 0.59867,2.296 1.5,4.5 3,6.394667 0.59867,0.401333 0.89467,0.704 1.19734,1.105333"
       style="fill:#1d4580;fill-opacity:1;fill-rule:nonzero;stroke:none;stroke-width:1.33333" /><path
       id="path72"
       d="m -781.49605,93.598664 c -0.30267,0 -0.5,0.204 -0.5,0.5 0,0.302667 0.19733,0.5 0.5,0.5 0.30266,0 0.5,-0.296 0.5,-0.5 0,-0.296 -0.19734,-0.5 -0.5,-0.5"
       style="fill:#1d4580;fill-opacity:1;fill-rule:nonzero;stroke:none;stroke-width:1.33333" /><path
       id="path73"
       d="m -792.89739,80.499998 c 0,0.197333 0,0.302667 0,0.401333 0,1 0,2.098667 0,3.098667 0,1.598667 0.704,2.901333 1.90134,4 0.90133,0.802666 2,1.197333 3.19733,1.401333 2.10533,0.401333 4,1.296 5.40133,2.901333 0.204,0.197334 0.40134,0.296 0.59867,0.394667 0.30267,0.105333 0.704,0 0.90133,-0.296 -4,-3.901333 -7.90133,-7.901333 -12,-11.901333"
       style="fill:#1d4580;fill-opacity:1;fill-rule:nonzero;stroke:none;stroke-width:1.33333" /><path
       id="path74"
       d="m -771.79872,70.197332 c -0.796,0.204 -1.59867,0.401333 -2.19733,1 -0.40134,0.5 -0.80267,1 -1.19734,1.5 0,0 0,0 0,0.105333 h 4.296 c 0.204,0 0.40134,0 0.704,0 0.19734,0 0.296,-0.105333 0.296,-0.302667 0.0987,-0.598666 0.30267,-1.197333 0.5,-1.802666 0,-0.09867 0,-0.197334 0,-0.296 -0.0987,0 -0.19733,0 -0.19733,-0.09867 -0.80267,-0.204 -1.5,-0.302667 -2.204,-0.105333"
       style="fill:#1d4580;fill-opacity:1;fill-rule:nonzero;stroke:none;stroke-width:1.33333" /><path
       id="path75"
       d="m -771.69339,43.697332 c -0.10533,-0.394666 -0.204,-0.5 -0.704,-0.5 -0.296,0 -0.59866,0 -0.90133,-0.09867 -0.39467,0 -0.69733,-0.09867 -1.09867,-0.09867 1.40134,2.302667 2.40134,4.697333 3,7.197333 1.40134,-0.394667 2.80267,-0.197333 4,0.704 -1.5,0.09867 -2.40133,0.901333 -3.296,2 1.39467,-0.204 2.59867,0.09867 3.59867,1 -1.5,0 -2.5,0.796 -3.40133,1.796 1,-0.09867 2,0 2.90133,0.401333 0.90133,0.302667 1.69733,0.901334 2.40133,1.704 -2.204,-0.302666 -3.80266,0.697334 -5.30266,2 1.40133,0.09867 2.5,0.697333 3.30266,1.697333 -0.704,-0.09867 -1.30266,-0.09867 -1.90133,0.09867 -0.59867,0.204 -1.204,0.5 -1.704,0.901333 1.30267,0.401334 2.5,0.697334 3.30267,2.098667 -1.40134,-0.197333 -2.69734,-0.197333 -3.90134,0.704 1.30267,0.394667 2.5,0.894667 3.09867,2.197333 -1.39467,-0.598666 -2.59867,0.09867 -3.89467,0.401334 0,0.09867 0,0.09867 0,0.09867 0.0987,0 0.19734,0.09867 0.296,0.09867 1.204,0.401333 2,1.204 2.5,2.302667 0.0987,0 0.204,-0.09867 0.204,-0.09867 0.69734,-1.204 1.69734,-2 2.89467,-2.5 1.30267,-0.605333 2.10533,-1.5 2.5,-2.901333 0.30267,-1.098667 0.5,-2.204 0.5,-3.302667 0.204,-2.901333 0.204,-5.901333 -0.296,-8.697333 -0.0987,-0.901333 -0.40133,-1.704 -0.704,-2.5 -0.39467,-1 -1.09867,-1.401333 -2.19733,-1.204 -0.5,0.105333 -1,0.105333 -1.5,0 -1.69734,-0.296 -3,-1.598667 -3.40134,-3.296 -0.0987,-0.802666 -0.19733,-1.5 -0.296,-2.204"
       style="fill:#1d4580;fill-opacity:1;fill-rule:nonzero;stroke:none;stroke-width:1.33333" /><path
       id="path76"
       d="m -775.29872,33.697332 c -0.59867,0.105334 -0.69733,0.105334 -0.89467,0.704 -0.30266,1 -0.30266,2 -0.30266,3.098667 0,0.598667 0.19733,0.901333 0.69733,1.098667 0.40133,0.09867 0.704,0.302666 1,0.5 0.10533,0.09867 0.30267,0.09867 0.5,0.204 -0.69733,-2 -0.59867,-3.802667 0.10533,-5.704 -0.30266,0 -0.704,0.09867 -1.10533,0.09867"
       style="fill:#1d4580;fill-opacity:1;fill-rule:nonzero;stroke:none;stroke-width:1.33333" /><path
       id="path77"
       d="m -743.89739,64.999998 -2.59866,-0.302666 c -0.5,-0.09867 -0.90134,0.204 -1,0.704 -0.0987,0.5 0.19733,0.901333 0.80266,0.901333 l 2.59867,0.296 -0.0987,0.598667 -2.60533,-0.296 c -0.796,-0.09867 -1.296,-0.802667 -1.19733,-1.598667 0.0987,-0.802667 0.69733,-1.401333 1.59866,-1.302667 l 2.59867,0.401334 z m -1.296,6.401334 c -0.204,0.697333 -0.80266,1.098666 -1.5,0.901333 -0.5,-0.204 -0.80266,-0.605333 -0.80266,-1.105333 l -2,0.401333 0.19733,-0.697333 1.90133,-0.302667 0.204,-0.697333 -1.60533,-0.5 0.204,-0.598667 3.796,1.098667 z m -1.90133,5.098666 c -0.30267,0.697333 -0.90133,0.901333 -1.5,0.697333 -0.40133,-0.197333 -0.59867,-0.598666 -0.59867,-0.796 -0.204,0.197334 -0.60533,0.401334 -1.10533,0.197334 -0.69733,-0.296 -0.796,-0.901334 -0.5,-1.598667 l 0.704,-1.5 3.69733,1.697333 z m -2,3.901333 -3.5,-2.098666 0.296,-0.5 3.40133,2.098666 z m -1.80267,2.796 -3.40133,-0.197333 2.204,1.697333 -0.40133,0.5 -3.19734,-2.5 0.296,-0.394666 3.40134,0.296 -2.19734,-1.697334 0.39467,-0.5 3.204,2.5 z m -4.5,5 -3.796,-1.894666 0.5,-0.401334 0.796,0.401334 1.09867,-1.105334 -0.39467,-0.796 0.5,-0.401333 1.69734,3.901333 z m -4.5,3.704 -0.296,-0.401333 0.89467,-0.697334 -2.09867,-2.802666 0.5,-0.401334 2.09867,2.802667 0.90133,-0.598667 0.30267,0.394667 z m -4.296,2.598667 -0.204,-0.5 1.704,-1 -0.60533,-1 -1.5,0.802666 -0.296,-0.5 1.5,-0.802666 -0.59867,-1 -1.704,1 -0.19733,-0.5 2.19733,-1.302667 2,3.5 z m -2.80266,-20.5 c 0,1.302667 0,2.598667 0,3.901333 0,2 0,4 0,6 0,3.197333 -2,6 -5,7 -1.19734,0.401333 -2.40134,0.697333 -3.59867,1 -0.90133,0.197333 -1.704,0.598667 -2.09867,1.5 0,0.09867 -0.10533,0.09867 -0.10533,0.197333 0.204,0 0.40133,0.09867 0.60533,0.09867 1.19734,0.302667 1.796,1.5 1.09867,2.605333 -0.40133,0.598667 -1,1 -1.90133,1 -0.30267,0 -0.5,0 -0.80267,0 -0.39467,0 -0.59867,0.09867 -0.796,0.394667 -0.30267,0.5 -0.80267,0.802667 -1.30267,1 -0.40133,0.105333 -0.69733,0.105333 -1.09866,0 -0.5,-0.197333 -1,-0.5 -1.40134,-1 -0.19733,-0.197333 -0.40133,-0.296 -0.69733,-0.296 -0.5,0 -0.90133,0 -1.40133,-0.09867 -0.90134,-0.105333 -1.59867,-0.901333 -1.59867,-1.901333 0,-0.901333 0.59867,-1.5 1.59867,-1.598667 0.0987,0 0.19733,0 0.40133,-0.105333 -0.40133,-0.796 -1,-1.394667 -1.80267,-1.598667 -0.90133,-0.296 -1.796,-0.5 -2.796,-0.697333 -2.30266,-0.598667 -4.204,-1.802667 -5.40133,-3.901333 -0.704,-1.302667 -0.90133,-2.697333 -0.90133,-4.098667 0,-3.098666 0,-6.204 0,-9.302666 0,-1.401333 -0.59867,-2.296 -1.80267,-2.796 -1.59867,-0.704 -2.89467,-1.704 -3.796,-3.105333 -0.59867,-1 -1,-2.098667 -1.204,-3.296 -0.59867,-3 -0.89467,-6.098667 -0.89467,-9.204 0,-1.697333 0.296,-3.394667 0.89467,-5 0.40133,-1 0.90133,-1.796 1.704,-2.5 1.09867,-1 2.40133,-1.197333 3.796,-0.598667 0.30267,0.09867 0.5,0.204 0.80267,0.401334 0.59866,0.302666 1.19733,0.302666 1.80266,0.197333 1.39467,-0.394667 2.39467,-1.598666 2.5,-3.098666 0,-0.598667 0.0987,-1.296 0.39467,-1.901334 -0.0987,0 -0.296,-0.09867 -0.39467,-0.09867 -0.60533,-0.197334 -1.30266,-0.5 -1.80266,-0.901334 -0.19734,-0.197333 -0.30267,-0.197333 -0.5,-0.296 -1.5,-0.302666 -2.5,-1.302666 -2.80267,-2.802666 -0.19733,-1.098667 -0.0987,-2.098667 0.5,-3 0,-0.09867 0,-0.197334 0,-0.296 -1.296,-2.5 -2.796,-4.802667 -4.69733,-6.802667 0,0 -0.0987,-0.09867 -0.0987,-0.09867 0,-0.09867 -0.0987,-0.302667 0,-0.401334 0.0987,-0.09867 0.296,-0.197333 0.40133,-0.09867 0.296,0.09867 0.69734,0.197333 1,0.296 0.89467,0.302666 1.89467,0.605333 2.796,0.901333 0.0987,0 0.204,0 0.30267,0.09867 0,-0.394667 0.0987,-0.796 0.0987,-1.197334 0.0987,-0.598666 0.0987,-1.197333 0.19733,-1.802666 0,-0.394667 0.30267,-0.5 0.60533,-0.296 1.09867,0.598666 2.296,1.296 3.39467,1.901333 0.10533,0 0.204,0.09867 0.30267,0.197333 0.0987,-0.09867 0.0987,-0.302666 0.19733,-0.401333 0.40133,-0.901333 0.704,-1.697333 1.10533,-2.598667 0.19734,-0.401333 0.39467,-0.401333 0.69734,-0.197333 0.80266,0.598667 1.59866,1.296 2.40133,1.894667 0.0987,-0.09867 0.0987,-0.197334 0.19733,-0.296 0.5,-0.802667 1,-1.704 1.59867,-2.598667 0.204,-0.401333 0.40133,-0.401333 0.704,-0.105333 0.69733,0.605333 1.296,1.105333 2,1.704 0.796,-1 1.59867,-2 2.40133,-3 h 0.296 c 0.40134,0.5 0.90134,1.098666 1.30267,1.598666 0.296,0.401334 0.69733,0.802667 1,1.197334 0.0987,-0.09867 0.19733,-0.09867 0.19733,-0.197334 0.5,-0.5 1.09867,-0.901333 1.704,-1.401333 0.296,-0.296 0.5,-0.296 0.69734,0.09867 0.5,0.901333 1.09866,1.802666 1.69733,2.704 0.60533,-0.5 1.30267,-1 1.90133,-1.5 0.0987,-0.09867 0.30267,-0.204 0.40134,-0.302667 0.30266,-0.197333 0.5,-0.197333 0.69733,0.204 0.40133,0.894667 0.80267,1.796 1.10533,2.598667 0,0.09867 0.0987,0.197333 0.0987,0.296 0.5,-0.296 1,-0.5 1.40133,-0.796 0.69734,-0.401334 1.39467,-0.802667 2.09867,-1.204 0.40133,-0.197334 0.59867,-0.09867 0.59867,0.302666 0.0987,0.802667 0.19733,1.697334 0.30266,2.5 0,0.09867 0,0.197334 0,0.401334 0.796,-0.302667 1.5,-0.5 2.296,-0.704 0.5,-0.197334 1,-0.296 1.59867,-0.5 0.204,-0.09867 0.40133,-0.09867 0.5,0.105333 0.10533,0.197333 0,0.394667 -0.0987,0.5 -2,2.098667 -3.5,4.5 -4.90133,7 -0.0987,0.09867 0,0.197333 0,0.296 0.40133,0.598666 0.704,1.302666 0.60533,2.098666 0,1 -0.30266,1.901334 -0.90133,2.704 -0.40133,0.5 -1,0.901334 -1.704,1 -0.19733,0.09867 -0.5,0.197334 -0.69733,0.296 -0.5,0.302667 -1,0.5 -1.59867,0.802667 -0.0987,0.09867 -0.30267,0.09867 -0.40133,0.197333 0.0987,0.5 0.19733,0.901334 0.30266,1.401334 0.0987,0.5 0.0987,0.901333 0.19734,1.401333 0.30266,1.302666 1.40133,2.197333 2.69733,2.302666 0.60533,0 1.10533,-0.204 1.704,-0.401333 0.40133,-0.204 0.90133,-0.401333 1.296,-0.5 1.204,-0.204 2.204,0.296 3.10533,1.098667 0.89467,0.901333 1.39467,2 1.796,3.098666 0.40134,1.204 0.5,2.5 0.59867,3.704 0.204,3.598667 -0.19733,7.296 -1.09867,10.796 -0.59866,2.302667 -2,3.901333 -4.09866,4.901333 -0.30267,0.09867 -0.5,0.302667 -0.80267,0.401334 -1.09867,0.5 -1.69733,1.401333 -1.69733,2.598666 m 0,21.802666 -2.69734,-1.901333 1,2.598667 -0.60533,0.197333 -1.5,-3.697333 0.5,-0.197334 2.704,2 -1,-2.605333 0.59867,-0.197333 1.5,3.802666 z m -25.80267,-2.204 c -0.19733,-0.401333 -0.39467,-0.598666 -0.796,-0.697333 -0.5,-0.204 -0.80267,-0.09867 -1,0.296 -0.0987,0.204 -0.0987,0.302667 0,0.5 0,0.105333 0.0987,0.204 0.296,0.302667 l 0.40133,0.197333 c 0.30267,0.105333 0.5,0.302667 0.59867,0.605333 0.10533,0.197334 0.10533,0.5 0,0.796 -0.19733,0.704 -0.89467,0.901334 -1.69733,0.598667 -0.5,-0.197333 -0.80267,-0.394667 -1,-0.894667 l 0.5,-0.204 c 0.0987,0.302667 0.40133,0.5 0.69733,0.598667 0.40133,0.204 0.80267,0 0.90133,-0.296 0.0987,-0.09867 0.0987,-0.302667 0,-0.401333 -0.0987,-0.09867 -0.19733,-0.302667 -0.296,-0.401334 l -0.40133,-0.197333 c -0.30267,-0.204 -0.5,-0.302667 -0.59867,-0.5 -0.10533,-0.204 -0.10533,-0.5 0,-0.901333 0.296,-0.697334 1,-0.901334 1.796,-0.598667 0.59867,0.197333 0.90134,0.5 1.09867,1 z m -4.796,0.901334 -0.204,0.5 -2.5,-1.302667 0.30267,-0.5 1,0.5 1.59866,-3.098667 0.5,0.302667 -1.59866,3 z m -4.40133,-1.901334 -0.5,-0.296 1.5,-2.204 c 0.30266,-0.5 0.19733,-0.901333 -0.19734,-1.197333 -0.40133,-0.302667 -0.90133,-0.204 -1.204,0.197333 l -1.5,2.204 -0.5,-0.401333 1.5,-2.204 c 0.5,-0.697333 1.30267,-0.796 2,-0.296 0.704,0.5 0.90134,1.296 0.40134,2 z m -5.19734,-4.098666 c -0.30266,-0.302667 -0.5,-0.598667 -0.5,-1 0,-0.598667 0.39467,-1 0.796,-1.401333 0.40134,-0.401334 0.80267,-0.901334 1.40134,-0.901334 0.40133,0 0.69733,0.105334 1,0.401334 l 1,1 -2.69734,2.901333 z m -3,-3.098667 3,-2.598666 0.39467,0.5 -3,2.598666 z m -1.30266,-2.204 c -0.40134,-0.09867 -0.69734,-0.296 -1,-0.598666 -0.19734,-0.296 -0.30267,-0.697334 -0.30267,-1.098667 0.10533,-0.5 0.5,-0.802667 1.10533,-1.197333 0.59867,-0.401334 1,-0.704 1.5,-0.605334 0.39467,0.105334 0.69734,0.302667 1,0.605334 0.296,0.296 0.296,0.697333 0.296,1.098666 -0.0987,0.5 -0.5,0.796 -1.09866,1.197334 -0.5,0.401333 -0.90134,0.704 -1.5,0.598666 m -3.59867,-5.098666 c -0.40133,-0.697334 -0.0987,-1.296 0.5,-1.697334 0.5,-0.302666 1,-0.09867 1.296,0.197334 l 1.204,-1.598667 0.296,0.598667 -1.09867,1.5 0.30267,0.704 1.5,-0.802667 0.296,0.5 -3.59867,1.901333 z m -2.30267,-5.5 -0.19733,-0.598667 2.5,-0.697333 c 0.5,-0.105333 0.69733,-0.5 0.59867,-1 -0.0987,-0.5 -0.5,-0.704 -1.09867,-0.605333 l -2.5,0.704 -0.204,-0.598667 2.60533,-0.704 c 0.796,-0.197333 1.5,0.204 1.69734,1 0.19733,0.802667 -0.0987,1.5 -0.90134,1.802667 z m -1.40133,-5.697333 2.5,-2.204 -2.796,0.401333 -0.0987,-0.598667 4,-0.5 0.0987,0.5 -2.59867,2.197334 2.796,-0.394667 0.0987,0.598667 -4,0.598666 z m -0.5,-5.401334 4,-0.09867 v 0.598666 l -4,0.09867 z m 0.10533,-2.401333 3,-0.697333 -2.80266,-1.098667 v -0.605333 l 3.90133,1.605333 v 0.5 l -4.09867,1 z m 0.89467,-6.901333 0.5,0.105333 -0.39467,1.894667 1.09867,0.204 0.296,-1.598667 0.5,0.09867 -0.19733,1.697333 1.19733,0.204 0.40133,-1.901333 0.5,0.09867 -0.5,2.5 -3.90133,-0.802667 z m 1.10533,-3.598667 c 0.19734,-0.697333 0.89467,-1 1.5,-0.796 0.5,0.197334 0.796,0.598667 0.796,1.098667 l 2,-0.302667 -0.19733,0.704 -1.90133,0.296 -0.19734,0.704 1.59867,0.5 -0.204,0.598667 -3.796,-1.302667 z m 1.69734,-4.197333 c 0.19733,-0.5 0.5,-0.802666 1,-0.901333 l 0.19733,0.5 c -0.296,0.09867 -0.5,0.302667 -0.69733,0.697333 -0.19734,0.401334 -0.0987,0.802667 0.19733,0.901334 0.10533,0.09867 0.30267,0.09867 0.40133,0 0.0987,-0.09867 0.30267,-0.197334 0.40134,-0.296 l 0.19733,-0.401334 c 0.204,-0.302666 0.40133,-0.401333 0.60533,-0.5 0.296,-0.09867 0.59867,-0.09867 0.89467,0.09867 0.704,0.302667 0.80267,1.098667 0.40133,1.802667 -0.296,0.499999 -0.59866,0.894666 -1.09866,0.999999 l -0.19734,-0.5 c 0.39467,-0.105333 0.59867,-0.401333 0.796,-0.802666 0.204,-0.5 0.204,-0.802667 -0.19733,-1 -0.204,-0.09867 -0.30267,-0.09867 -0.40133,0 -0.0987,0.09867 -0.19734,0.09867 -0.30267,0.302667 l -0.296,0.394666 c -0.204,0.302667 -0.40133,0.5 -0.59867,0.5 -0.204,0.105334 -0.5,0.105334 -0.80266,-0.09867 -0.69734,-0.296 -0.90134,-1 -0.5,-1.697334 m 2,-3.598666 3.40133,2.098666 -0.30267,0.5 -3.40133,-2.098666 z m 2.69733,-3.901334 0.40133,0.296 -0.69733,0.901334 2.796,2.098666 -0.39467,0.5 -2.80266,-2.098666 -0.69734,0.901333 -0.30266,-0.401333 z m 2.10533,-2.302666 3.89467,1.704 -0.5,0.5 -0.796,-0.401334 -1.09867,1.197334 0.39467,0.704 -0.39467,0.5 -1.90133,-3.802667 z m 3.296,-3.098667 c 0.40134,-0.302666 0.80267,-0.5 1.30267,-0.401333 l -0.0987,0.5 c -0.30266,0 -0.60533,0.09867 -0.90133,0.302667 -0.40133,0.296 -0.40133,0.697333 -0.204,0.901333 0.10533,0.09867 0.204,0.197333 0.30267,0.197333 0.0987,0 0.30266,0 0.5,-0.09867 l 0.40133,-0.204 c 0.296,-0.197334 0.5,-0.197334 0.796,-0.197334 0.30267,0 0.5,0.197334 0.80267,0.401334 0.5,0.598666 0.30266,1.295999 -0.40134,1.795999 -0.5,0.401334 -0.90133,0.605334 -1.40133,0.5 l 0.10533,-0.598666 c 0.39467,0.09867 0.69734,-0.09867 1,-0.296 0.39467,-0.302667 0.5,-0.704 0.296,-1 -0.0987,-0.105333 -0.19733,-0.204 -0.40133,-0.204 -0.0987,0 -0.19733,0 -0.5,0.09867 l -0.39467,0.203999 c -0.30266,0.197334 -0.60533,0.197334 -0.80266,0.197334 -0.30267,0 -0.5,-0.197334 -0.69734,-0.401333 -0.40133,-0.5 -0.30266,-1.197334 0.296,-1.697334 m 47.30267,-0.401333 1.19733,1 c 0.59867,0.5 0.704,1.204 0.204,1.802666 -0.5,0.5 -1.204,0.598667 -1.80266,0.09867 l -0.69734,-0.598667 -1,1.197334 -0.5,-0.401334 z m 3.90133,3.5 0.39467,0.5 -2,1.802666 c -0.39467,0.401334 -0.39467,0.796 -0.0987,1.197334 0.30267,0.401333 0.80267,0.401333 1.204,0 l 2,-1.796 0.39467,0.394666 -2,1.802667 c -0.59867,0.5 -1.39467,0.5 -2,-0.197333 -0.5,-0.605334 -0.5,-1.401334 0.10533,-2 z m 4.39467,5.598666 c 0.40133,0.605334 0.30267,1.204 -0.19733,1.605334 -0.40134,0.197333 -0.80267,0.197333 -1,0 0.0987,0.296 0,0.697333 -0.40134,1 -0.59866,0.394666 -1.19733,0.197333 -1.59866,-0.401334 l -0.90134,-1.401333 3.40134,-2.197333 z m 2.30267,4 -3.09867,1.5 0.796,1.704 -0.5,0.197333 -1.09867,-2.295999 3.59867,-1.704 z m 1.59866,3.901333 0.204,0.598667 -3.80266,1.302667 -0.19734,-0.598667 z m 1.30267,4.401334 c 0.19733,0.697333 -0.0987,1.401333 -0.90133,1.697333 l -0.0987,-0.598667 c 0.40133,-0.197333 0.59867,-0.5 0.5,-1 0,-0.197333 -0.204,-0.401333 -0.40133,-0.5 -0.30267,-0.09867 -0.5,-0.09867 -1.30267,0 -0.796,0.204 -1,0.302667 -1.19733,0.5 -0.0987,0.204 -0.19734,0.401334 -0.0987,0.598667 0.0987,0.401333 0.40133,0.605333 0.90133,0.605333 l 0.0987,0.598667 c -0.80267,0 -1.40133,-0.401333 -1.5,-1.098667 -0.0987,-0.401333 0,-0.802666 0.19733,-1.105333 0.30267,-0.5 0.704,-0.598667 1.5,-0.697333 0.80267,-0.197334 1.204,-0.302667 1.704,0 0.296,0.302666 0.5,0.598666 0.59867,1 m 0.796,5.302666 -3.89467,1.796 v -0.598666 l 0.796,-0.302667 -0.0987,-1.598667 -0.80267,-0.197333 -0.0987,-0.598667 4.09867,1.098667 z m -37.69733,-46.703999 c -27.5,0 -49.90134,22.302666 -49.90134,49.901332 0,27.5 22.30267,49.90133 49.90134,49.90133 27.5,0 49.90133,-22.302664 49.90133,-49.90133 0,-27.598666 -22.40133,-49.901332 -49.90133,-49.901332"
       style="fill:#1d4580;fill-opacity:1;fill-rule:nonzero;stroke:none;stroke-width:1.33333" /><path
       id="path78"
       d="m -794.89739,36.401332 c -0.19733,-0.09867 -0.40133,-0.204 -0.59866,-0.302666 -0.0987,0 -0.30267,0 -0.30267,0.09867 -0.59867,0.802667 -0.89467,1.802667 -0.59867,2.802667 0.204,0.802667 0.59867,1.401333 1.30267,1.901333 -0.30267,-0.704 -0.5,-1.5 -0.5,-2.302666 0.0987,-0.796 0.296,-1.5 0.69733,-2.197334"
       style="fill:#1d4580;fill-opacity:1;fill-rule:nonzero;stroke:none;stroke-width:1.33333" /><path
       id="path79"
       d="m -791.79872,39.197332 c -0.0987,0.302667 0.10533,0.5 0.40133,0.605334 0.30267,0.09867 0.59867,0.09867 0.90134,0.197333 0.5,0.09867 0.59866,0 0.90133,-0.5 0.5,-1.098667 0.69733,-2.197333 0.59867,-3.401333 0,-0.697334 -0.19734,-1.401334 -0.5,-2.098667 -0.0987,-0.09867 -0.30267,-0.302667 -0.40134,-0.302667 -0.59866,0 -1.19733,0 -1.90133,0 0.10533,0.204 0.10533,0.401334 0.204,0.605334 0.40133,1 0.5,2 0.296,3 -0.19733,0.598666 -0.39467,1.296 -0.5,1.894666"
       style="fill:#1d4580;fill-opacity:1;fill-rule:nonzero;stroke:none;stroke-width:1.33333" /><path
       id="path80"
       d="m -781.49605,34.401332 c -0.40134,0 -0.80267,0.401334 -0.80267,0.796 0,0.401334 0.40133,0.802667 0.80267,0.802667 0.40133,0 0.80266,-0.401333 0.80266,-0.802667 0,-0.394666 -0.40133,-0.796 -0.80266,-0.796"
       style="fill:#1d4580;fill-opacity:1;fill-rule:nonzero;stroke:none;stroke-width:1.33333" /><path
       id="path81"
       d="m -786.79872,38.401332 c 0.10533,-0.09867 0.204,-0.302666 0.204,-0.5 0,-0.5 0,-1.098666 0,-1.598666 0,-0.704 -0.0987,-1.302667 -0.30267,-2 -0.0987,-0.401334 -0.40133,-0.605334 -0.796,-0.605334 -0.30266,0 -0.60533,-0.09867 -0.80266,-0.09867 -0.0987,0 -0.30267,0 -0.40134,0 0.80267,1.901333 0.80267,3.802666 0.0987,5.802666 0.704,-0.401333 1.40133,-0.704 2,-1"
       style="fill:#1d4580;fill-opacity:1;fill-rule:nonzero;stroke:none;stroke-width:1.33333" /><path
       id="path82"
       d="m -781.49605,36.901332 c -0.90134,0 -1.69734,-0.802666 -1.69734,-1.704 0,-0.894666 0.796,-1.598666 1.69734,-1.598666 0.90133,0 1.69733,0.802666 1.69733,1.704 0,0.796 -0.796,1.598666 -1.69733,1.598666 m 3.19733,-3.302666 c -0.5,0.09867 -0.69733,0 -1,-0.401333 -0.5,-0.598667 -1.09867,-1.197334 -1.69733,-1.796 -0.40134,-0.401334 -0.80267,-0.401334 -1.19734,0.09867 -0.5,0.598667 -1.10533,1.098667 -1.5,1.697334 -0.30266,0.401333 -0.5,0.499999 -1,0.302666 -0.5,-0.197333 -1,-0.197333 -1.60533,0 0.704,1.401333 0.5,3 0.5,4.5 2.80267,-0.697333 5.60533,-0.697333 8.5,0 0,-1.598667 -0.0987,-3.098667 0.5,-4.5 -0.39467,-0.09867 -1,-0.09867 -1.5,0.09867"
       style="fill:#1d4580;fill-opacity:1;fill-rule:nonzero;stroke:none;stroke-width:1.33333" /><path
       id="path83"
       d="m -787.59472,41.697332 c 0.59867,-0.296 1.296,-0.697333 1.90133,-0.894666 2.19734,-0.802667 4.39467,-0.901334 6.59867,-0.5 1.296,0.197333 2.5,0.598666 3.59867,1.296 1.40133,0.901333 3,1 4.59866,0.704 2.80267,-0.605334 3.09867,-3.704 2.09867,-5.302667 -0.0987,-0.09867 -0.19733,-0.302667 -0.296,-0.302667 -0.59867,0 -1.09867,0 -1.704,0 0,0.204 0,0.5 0.10533,0.704 0.0987,0.598667 0.296,1.098667 0.39467,1.697334 0.204,0.704 0,1.098666 -0.59867,1.401333 -1.09866,0.5 -2.19733,0.5 -3.19733,-0.09867 -1.704,-1 -3.59867,-1.598666 -5.59867,-1.802666 -3.204,-0.296 -6.10533,0.09867 -8.90133,1.802666 -1,0.598667 -2.09867,0.598667 -3.09867,0.197334 -0.80266,-0.296 -1,-0.697334 -0.80266,-1.5 0.19733,-0.796 0.30266,-1.5 0.5,-2.296 -0.59867,0 -1.19734,0 -1.69734,0 -0.204,0 -0.40133,0.09867 -0.5,0.394666 -0.10533,0.401334 -0.30266,0.704 -0.40133,1.105334 -0.5,1.894666 0.5,3.598666 2.5,4.098666 1.5,0.197334 3,0 4.5,-0.704"
       style="fill:#1d4580;fill-opacity:1;fill-rule:nonzero;stroke:none;stroke-width:1.33333" /><path
       id="path84"
       d="m -755.89739,87.401331 -0.69733,-1.704 -0.90133,0.802667 z"
       style="fill:#1d4580;fill-opacity:1;fill-rule:nonzero;stroke:none;stroke-width:1.33333" /><path
       id="path85"
       d="m -798.79872,50.598665 c -0.59867,2.204 -0.89467,4.401334 -1,6.598667 -0.0987,2.204 0.10533,4.401333 0.40133,6.605333 0.30267,1.894667 1.204,3.197333 2.90134,4 0.59866,0.296 1.19733,0.796 1.80266,1.197333 0.59867,0.5 1,1.098667 1.19734,1.802667 0.0987,0.5 0.30266,1 0.40133,1.394667 0.0987,0.302666 0.19733,0.401333 0.59867,0.401333 1.40133,0 2.80266,0 4.30266,0 0.0987,0 0.296,0 0.5,-0.09867 -0.40133,-0.5 -0.704,-0.901333 -1.10533,-1.302666 -0.89467,-1.098667 -2,-1.394667 -3.39467,-1.296 -0.40133,0 -0.80266,0.197333 -1.30266,0.296 0.5,-1.296 1.5,-2 2.80266,-2.5 -1.30266,-0.598667 -2.5,-1 -3.90133,-0.5 0.40133,-0.598667 0.796,-1.197334 1.296,-1.5 0.5,-0.296 1.10533,-0.598667 1.704,-0.796 -1.09867,-0.704 -2.30267,-1.098667 -3.704,-0.704 0.704,-1.296 1.90133,-1.598667 3.204,-2.098667 -1.09867,-0.697333 -2.30267,-1.197333 -3.59867,-0.901333 0.296,-0.394667 0.59867,-0.697334 1,-0.894667 0.69734,-0.5 1.5,-0.704 2.39467,-0.802666 -1.59867,-1.302667 -3.19733,-2.302667 -5.39467,-2.098667 1.5,-1.5 3.19734,-2.098667 5.296,-2 -1,-1 -2,-1.802667 -3.40133,-1.802667 1,-1 2.30267,-1 3.60533,-1.197333 -0.60533,-0.5 -1,-0.901333 -1.5,-1.302667 -0.5,-0.401333 -1.204,-0.5 -1.90133,-0.5 1.296,-0.901333 2.59867,-1.197333 4.09867,-0.796 0.69733,-2.605333 1.69733,-4.901333 3,-7.203999 -0.80267,0.09867 -1.5,0.204 -2.09867,0.302666 -0.30267,0 -0.40133,0.197334 -0.5,0.5 -0.0987,0.598667 -0.204,1.296 -0.30267,1.901334 -0.40133,2.598666 -3,3.999999 -5,3.499999 -0.40133,-0.105333 -0.69733,0 -1.09866,0.09867 -0.69734,0.598667 -1.09867,1.098667 -1.30267,1.697333"
       style="fill:#1d4580;fill-opacity:1;fill-rule:nonzero;stroke:none;stroke-width:1.33333" /><path
       id="path86"
       d="m -749.89739,75.999998 c 0.30267,0.09867 0.704,0 0.80267,-0.401333 l 0.40133,-0.901334 -1.10533,-0.5 -0.39467,0.901334 c -0.204,0.401333 -0.10533,0.704 0.296,0.901333"
       style="fill:#1d4580;fill-opacity:1;fill-rule:nonzero;stroke:none;stroke-width:1.33333" /><path
       id="path87"
       d="m -784.69339,61.901332 c 0.0987,0.09867 0.0987,0.09867 0.19734,0.296 0.80266,-1.598667 0.59866,-3.197333 0.59866,-4.796 -0.0987,0.09867 -0.19733,0.09867 -0.296,0.197333 -0.5,0.302667 -1,0.598667 -1.60533,0.704 -0.19733,0 -0.296,0.09867 -0.296,0.296 0.19733,1.098667 0.59867,2.204 1.40133,3.302667"
       style="fill:#1d4580;fill-opacity:1;fill-rule:nonzero;stroke:none;stroke-width:1.33333" /><path
       id="path88"
       d="m -760.99605,65.302665 c 0.69733,-3 1,-6 1,-9 0,-1.605333 -0.0987,-3.204 -0.59867,-4.802666 -0.30267,-1.098667 -0.90133,-2 -1.80267,-2.697334 -0.796,-0.605333 -1.59866,-0.802666 -2.69733,-0.5 0.0987,0.09867 0.19733,0.09867 0.19733,0.197334 0.704,0.401333 1.204,1 1.5,1.697333 0.204,0.401333 0.30267,0.802667 0.40134,1.204 0.5,1.901333 0.59866,3.901333 0.69733,5.901333 0.10533,2.296 0,4.697333 -0.39467,6.894667 -0.40133,2 -1.5,3.605333 -3.40133,4.401333 -2,0.901333 -2.90133,2.401333 -2.90133,4.5 0,3.598666 0,7.098666 0,10.704 0,0.796 -0.0987,1.5 -0.40134,2.197333 -1.09866,2.302666 -2.90133,3.697333 -5.40133,4.098666 -2,0.302667 -3.69733,1.204 -5.09867,2.598667 -0.296,0.302667 -0.40133,0.605333 -0.296,1 0.0987,0.401333 0,0.802667 -0.30266,1.105333 -0.40134,0.5 -1.09867,0.598667 -1.59867,0.197334 -0.59867,-0.401334 -0.80267,-1 -0.59867,-1.598667 0.0987,-0.204 0,-0.401333 -0.10533,-0.598667 -0.796,-1 -1.796,-1.802666 -3.09867,-2.302666 -0.796,-0.302667 -1.69733,-0.5 -2.59866,-0.697334 -3.09867,-0.704 -5.40134,-3.203999 -5.30267,-6.605333 0,-1.5 0,-3.098666 0,-4.598666 0,-2 0,-4 0,-6 0,-1.197333 -0.39467,-2.197333 -1.19733,-3.098667 -0.59867,-0.598666 -1.30267,-1 -2,-1.302666 -1.09867,-0.5 -1.90134,-1.296 -2.5,-2.394667 -0.40134,-0.802667 -0.59867,-1.704 -0.80267,-2.605333 -0.296,-1.796 -0.296,-3.598667 -0.296,-5.5 0,-2.394667 0.19733,-4.697333 0.796,-7 0.30267,-1.098667 0.80267,-2.098667 1.80267,-2.598667 0,0 0.0987,-0.09867 0.0987,-0.09867 -0.5,-0.09867 -1,-0.09867 -1.40133,0 -1.09867,0.302666 -1.796,1 -2.39467,2 -0.704,1.302666 -1,2.598666 -1.10533,4 -0.19733,3.598666 0,7.197333 0.80267,10.802666 0.19733,1.098667 0.59866,2.098667 1.19733,3 0.80267,1.197333 1.90133,2 3.204,2.598667 0.40133,0.197333 0.90133,0.401333 1.19733,0.697333 1,0.802667 1.204,1.802667 1.204,3 0,3.302666 0,6.704 0,10 0,2.401333 1.09867,4.203999 3.19734,5.499999 1.19733,0.704 2.59866,1.098667 4,1.302667 0.90133,0.09867 1.80266,0.401333 2.59866,1 0.5,0.401333 0.90134,0.901333 1.09867,1.598667 0.30267,1 -0.296,1.302666 -1,1.098666 -0.39467,-0.09867 -0.69733,0 -0.89467,0.401334 -0.204,0.302666 -0.204,0.697333 0.0987,1 0.296,0.401333 0.69733,0.5 1.19733,0.5 0.5,0 0.90134,0 1.40134,-0.09867 0.19733,0 0.30266,0.09867 0.40133,0.197333 0.19733,0.302667 0.40133,0.598667 0.69733,0.901334 0.5,0.598666 1.204,0.598666 1.704,0 0.19734,-0.197334 0.39467,-0.5 0.59867,-0.802667 0.296,-0.5 0.296,-0.5 0.796,-0.296 0.704,0.09867 1.40133,0.09867 2.10533,-0.302667 0.39467,-0.296 0.5,-0.697333 0.296,-1.098666 -0.19733,-0.401334 -0.5,-0.598667 -1,-0.598667 -0.0987,0 -0.19733,0.09867 -0.296,0.09867 -0.5,0 -0.80266,-0.197334 -0.704,-0.697334 0,-0.605333 0.30267,-1.105333 0.704,-1.605333 0.69734,-0.697333 1.5,-1.098667 2.39467,-1.296 1,-0.204 1.90133,-0.401333 2.90133,-0.704 2.30267,-0.697333 3.90134,-2.197333 4.59867,-4.598666 0.30267,-1 0.30267,-2.098667 0.30267,-3.098667 0,-3 0,-5.901333 0,-8.901333 0,-1.401333 0.59866,-2.401333 1.80266,-3 0.296,-0.197333 0.59867,-0.296 0.89467,-0.401333 2.40133,-0.894667 3.80267,-2.5 4.30267,-4.894667"
       style="fill:#1d4580;fill-opacity:1;fill-rule:nonzero;stroke:none;stroke-width:1.33333" /><path
       id="path89"
       d="m -746.49605,71.697332 c 0.40133,0.105333 0.69733,-0.09867 0.80266,-0.5 l 0.19734,-0.894667 -1.19734,-0.302667 -0.204,0.901334 c -0.0987,0.401333 0,0.697333 0.40134,0.796"
       style="fill:#1d4580;fill-opacity:1;fill-rule:nonzero;stroke:none;stroke-width:1.33333" /><path
       id="path90"
       d="m -748.29872,76.598665 c 0.30267,0.204 0.60533,0 0.80267,-0.296 l 0.40133,-0.802667 -1,-0.5 -0.40133,0.802667 c -0.19734,0.296 -0.19734,0.697333 0.19733,0.796"
       style="fill:#1d4580;fill-opacity:1;fill-rule:nonzero;stroke:none;stroke-width:1.33333" /><path
       id="path91"
       d="m -787.99605,67.697332 c 0,-0.09867 -0.0987,-0.09867 -0.0987,-0.197334 0,0 0,0 -0.0987,0.09867 0.39467,1.5 1.296,2.704 2.5,3.802667 0.0987,-0.401334 0.19734,-0.704 0.19734,-1 0.0987,-0.401334 0.0987,-0.5 -0.30267,-0.704 -0.796,-0.598667 -1.5,-1.296 -2.19733,-2"
       style="fill:#1d4580;fill-opacity:1;fill-rule:nonzero;stroke:none;stroke-width:1.33333" /><path
       id="path92"
       d="m -776.49605,58.302665 c -1.69734,-0.302666 -2.90134,-1.105333 -3.90134,-2.401333 0.204,2.598667 0.80267,5 2.80267,6.796 0.796,-1.394667 1,-2.894667 1.09867,-4.394667"
       style="fill:#1d4580;fill-opacity:1;fill-rule:nonzero;stroke:none;stroke-width:1.33333" /><path
       id="path93"
       d="m -785.29872,72.697332 h 7.60533 c -0.60533,-1.296 -0.60533,-2.697334 -0.60533,-4.098667 v -4.796 c 0,-0.302667 -0.0987,-0.605333 -0.296,-0.802667 -1.704,-1.901333 -2.5,-4.098666 -2.80267,-6.499999 0,-0.5 -0.0987,-1.098667 -0.0987,-1.5 -0.5,0.5 -1,0.901333 -1.5,1.401333 -0.0987,0.09867 -0.19734,0.401333 -0.19734,0.598667 0,0.697333 0,1.401333 0,2.098666 0,0.802667 -0.10533,1.704 -0.30266,2.5 -0.0987,0.302667 -0.19734,0.704 -0.19734,1 -0.10533,1.302667 -0.204,2.598667 -0.30266,3.802667 -0.19734,2 -0.5,4 -1.30267,5.901333 0,0.197333 0,0.296 0,0.394667"
       style="fill:#1d4580;fill-opacity:1;fill-rule:nonzero;stroke:none;stroke-width:1.33333" /><path
       id="path94"
       d="m -770.59472,53.598665 c -0.0987,0 -0.204,0.204 -0.204,0.302667 0,0.296 0,0.598667 0.10533,0.901333 0.59867,-0.401333 1.09867,-0.704 1.69734,-1.105333 -0.59867,-0.197333 -1.09867,-0.296 -1.59867,-0.09867"
       style="fill:#1d4580;fill-opacity:1;fill-rule:nonzero;stroke:none;stroke-width:1.33333" /><path
       id="path95"
       d="m -770.99605,50.802665 c -0.0987,0.09867 -0.30267,0.197334 -0.30267,0.296 0,0.302667 0.10533,0.704 0.10533,1 0.5,-0.5 1,-0.901333 1.5,-1.296 -0.40133,-0.105333 -0.80266,-0.105333 -1.30266,0"
       style="fill:#1d4580;fill-opacity:1;fill-rule:nonzero;stroke:none;stroke-width:1.33333" /><path
       id="path96"
       d="m -770.39739,56.697332 c -0.0987,0 -0.296,0.204 -0.296,0.302667 0,0.5 0,1 0,1.598666 0.89467,-0.697333 1.89467,-1.296 3.09867,-1.5 -0.90133,-0.401333 -1.80267,-0.5 -2.80267,-0.401333"
       style="fill:#1d4580;fill-opacity:1;fill-rule:nonzero;stroke:none;stroke-width:1.33333" /><path
       id="path97"
       d="m -772.99605,82.302665 c -1,-0.901334 -1.90134,-1.704 -2.90134,-2.605334 -0.19733,0.401334 -0.296,0.704 -0.5,1 -0.296,-0.296 -0.5,-0.598666 -0.796,-0.894666 0.296,-0.204 0.59867,-0.401334 0.89467,-0.5 -0.796,-0.901334 -1.69733,-1.901334 -2.5,-2.802667 0.30267,0 0.60533,0 0.90133,0.09867 0.5,0 1,0.09867 1.5,0.09867 0.40134,0 0.5,0.105334 0.5,0.5 0.0987,0.401334 0.0987,0.704 0.204,1.105334 0,0.09867 0.0987,0.197333 0.19734,0.296 0,0 0.19733,0 0.30266,-0.09867 0,-0.09867 0,-0.302667 0,-0.401333 0,-0.09867 -0.10533,-0.197334 -0.204,-0.401334 0.40134,-0.09867 1,0.401334 1.09867,0.704 0,0.09867 0,0.197334 -0.0987,0.296 -0.0987,0.105334 -0.296,0.204 -0.40133,0.302667 0.10533,0.302667 0.30267,0.302667 0.60533,0.302667 0.19734,0 0.5,0 0.69734,0 0.30266,0 0.40133,0.09867 0.40133,0.394666 0.0987,0.802667 0.19733,1.5 0.19733,2.302667 -0.0987,0.197333 -0.0987,0.197333 -0.0987,0.302667 m 2.80266,2.697333 c 0.0987,-0.901333 0.0987,-1.802667 0.0987,-2.697333 0,-0.5 -0.204,-0.901334 -0.5,-1.302667 -2.30267,-2.302667 -4.59867,-4.598667 -6.90133,-6.901333 -0.30267,-0.296 -0.69734,-0.5 -1.09867,-0.5 -1.80267,0 -3.5,0 -5.30267,0 -0.0987,0 -0.0987,0 -0.296,0 4.39467,4.401333 8.796,8.704 13.19734,13 0.40133,-0.401334 0.80266,-0.901334 0.80266,-1.598667"
       style="fill:#1d4580;fill-opacity:1;fill-rule:nonzero;stroke:none;stroke-width:1.33333" /><path
       id="path98"
       d="m -795.99605,35.302666 c 0.80266,0.197333 1.69733,0.394666 2.5,0.5 0.5,0.09867 0.90133,0 1.40133,-0.204 -0.30267,-0.901334 -0.5,-1.697334 -0.80267,-2.598667 1.704,-0.401333 3.40134,-0.401333 5.09867,-0.197333 0.204,0 0.40133,0.09867 0.60533,0 0.796,-0.302667 1.5,-0.302667 2.296,-0.204 0.40134,0.09867 0.704,-0.09867 0.90134,-0.401333 0.40133,-0.598667 1,-1.098667 1.59866,-1.598667 0.59867,-0.401333 1.09867,-0.401333 1.704,0 0.59867,0.401333 1.19734,0.901333 1.59867,1.598667 0.296,0.401333 0.59867,0.5 1.09867,0.5 0.69733,-0.09867 1.40133,0 2,0.105333 0.19733,0.09867 0.5,0.09867 0.80266,0.09867 1.09867,-0.09867 2.09867,-0.302667 3.19734,-0.09867 0.59866,0.09867 1.19733,0.197333 1.90133,0.296 -0.30267,0.901333 -0.5,1.802666 -0.80267,2.598666 0.30267,0 0.5,0 0.704,0.105334 1,0 2,-0.204 3.09867,-0.401334 0.19733,0 0.296,-0.09867 0.40133,-0.302666 1.09867,-1.901333 2.19734,-3.697333 3.59867,-5.401333 0.0987,-0.197334 0.19733,-0.296 0.40133,-0.5 -0.204,0 -0.30266,0.105333 -0.40133,0.105333 -0.90133,0.296 -1.80267,0.598667 -2.59867,0.894667 -0.30266,0.105333 -0.5,0 -0.5,-0.394667 0,-0.204 0,-0.401333 -0.10533,-0.605333 -0.0987,-0.697334 -0.19733,-1.5 -0.19733,-2.197334 -0.0987,0.09867 -0.19734,0.09867 -0.30267,0.09867 -1,0.598667 -2.09867,1.204 -3.19733,1.802667 -0.40134,0.197333 -0.5,0.09867 -0.69734,-0.204 -0.40133,-0.894667 -0.704,-1.796 -1.10533,-2.598667 0,-0.09867 -0.0987,-0.09867 -0.0987,-0.197333 -0.69733,0.598666 -1.40133,1.197333 -2.19733,1.697333 -0.40133,0.302667 -0.5,0.302667 -0.80267,-0.09867 -0.5,-0.802666 -1,-1.598666 -1.40133,-2.401333 -0.0987,-0.09867 -0.0987,-0.197333 -0.19733,-0.296 -0.59867,0.5 -1.19734,1 -1.80267,1.5 -0.39467,0.394667 -0.5,0.394667 -0.89467,-0.105333 -0.60533,-0.697334 -1.204,-1.394667 -1.80266,-2.197334 -0.0987,-0.09867 -0.0987,-0.197333 -0.19734,-0.302666 -0.704,0.901333 -1.40133,1.704 -2.10533,2.605333 -0.296,0.394667 -0.39467,0.394667 -0.796,0.09867 -0.59867,-0.5 -1.204,-1 -1.90133,-1.598667 -0.0987,0.09867 -0.0987,0.197333 -0.19734,0.296 -0.5,0.802667 -1,1.704 -1.5,2.5 -0.204,0.401333 -0.40133,0.401333 -0.80266,0.09867 -0.69734,-0.5 -1.40134,-1.098667 -2,-1.697334 -0.0987,0 -0.0987,-0.09867 -0.19734,-0.197333 -0.40133,1 -0.80266,2 -1.30266,2.894667 -0.19734,0.401333 -0.30267,0.5 -0.69734,0.204 -1.10533,-0.598667 -2.204,-1.204 -3.204,-1.802667 -0.0987,0 -0.19733,-0.09867 -0.296,-0.197333 0,0.09867 0,0.197333 0,0.197333 -0.10533,0.901333 -0.204,1.802667 -0.30266,2.704 0,0.394667 -0.19734,0.5 -0.59867,0.394667 -0.40133,-0.09867 -0.80267,-0.296 -1.30267,-0.394667 -0.59866,-0.204 -1.19733,-0.401333 -1.796,-0.605333 0,0 0,0.105333 0,0.105333 1.5,1.796 2.796,3.697333 3.89467,5.796 0.10533,0.204 0.204,0.204 0.30267,0.204"
       style="fill:#1d4580;fill-opacity:1;fill-rule:nonzero;stroke:none;stroke-width:1.33333" /><path
       id="path99"
       d="m -770.89739,60.697332 c 0,0.302666 -0.0987,0.704 -0.0987,1.105333 0.69733,-0.5 1.30266,-0.704 2.09866,-0.802667 -0.40133,-0.302666 -1.40133,-0.5 -1.796,-0.401333 -0.10533,-0.09867 -0.204,0 -0.204,0.09867"
       style="fill:#1d4580;fill-opacity:1;fill-rule:nonzero;stroke:none;stroke-width:1.33333" /><path
       id="path100"
       d="m -769.49605,63.697332 c -0.5,-0.296 -1,-0.394667 -1.5,-0.394667 -0.0987,0 -0.19734,0.09867 -0.19734,0.197333 -0.10533,0.302667 -0.10533,0.598667 -0.204,0.901334 0.59867,-0.302667 1.30267,-0.5 1.90134,-0.704"
       style="fill:#1d4580;fill-opacity:1;fill-rule:nonzero;stroke:none;stroke-width:1.33333" /><path
       id="path101"
       d="m -767.69339,36.197332 c -0.10533,0.105334 -0.204,0.105334 -0.40133,0.204 0.90133,1.5 0.90133,3 0.19733,4.5 h 0.0987 c 0.10533,-0.09867 0.204,-0.09867 0.30267,-0.204 1.19733,-1.098666 1.40133,-2.796 0.5,-4.296 -0.19734,-0.401333 -0.30267,-0.401333 -0.69734,-0.204"
       style="fill:#1d4580;fill-opacity:1;fill-rule:nonzero;stroke:none;stroke-width:1.33333" /><path
       id="path102"
       d="m -771.09472,33.697332 c -0.59867,0 -1.09867,-0.09867 -1.704,-0.09867 -0.296,0 -0.5,0.09867 -0.5,0.401333 -0.69733,1.901333 -0.69733,3.802667 0.204,5.598667 0.0987,0.09867 0.296,0.302666 0.40133,0.302666 0.39467,0 0.796,0 1.09867,-0.09867 0.40133,-0.105334 0.5,-0.302667 0.5,-0.605334 0,-0.296 -0.0987,-0.697333 -0.204,-1 -0.19733,-1 -0.39467,-2 -0.19733,-3 0.0987,-0.5 0.30266,-1 0.40133,-1.5"
       style="fill:#1d4580;fill-opacity:1;fill-rule:nonzero;stroke:none;stroke-width:1.33333" /></g></svg>
